{
  "accessors": [
    {
      "bufferView": 2,
      "componentType": 5126,
      "count": 65533,
      "max": [
        0.8800193667411804,
        130.00827026367188,
        -33.64614486694336
      ],
      "min": [
        -0.43662339448928833,
        -369.7628173828125,
        -885.5302124023438
      ],
      "type": "VEC3"
    },
    {
      "bufferView": 2,
      "byteOffset": 786396,
      "componentType": 5126,
      "count": 65533,
      "max": [
        1.0,
        0.9999902844429016,
        0.9999991059303284
      ],
      "min": [
        -1.0,
        -0.9999903440475464,
        -0.9999990463256836
      ],
      "type": "VEC3"
    },
    {
      "bufferView": 1,
      "componentType": 5126,
      "count": 65533,
      "max": [
        5.2193498611450195,
        5.224894046783447
      ],
      "min": [
        -4.220432281494141,
        -4.224985122680664
      ],
      "type": "VEC2"
    },
    {
      "bufferView": 0,
      "componentType": 5125,
      "count": 117294,
      "type": "SCALAR"
    },
    {
      "bufferView": 2,
      "byteOffset": 1572792,
      "componentType": 5126,
      "count": 65532,
      "max": [
        0.8118564486503601,
        -7.733821868896484,
        -338.41668701171875
      ],
      "min": [
        -0.4028042256832123,
        -369.7628173828125,
        -613.8046875
      ],
      "type": "VEC3"
    },
    {
      "bufferView": 2,
      "byteOffset": 2359176,
      "componentType": 5126,
      "count": 65532,
      "max": [
        1.0,
        0.9999904036521912,
        0.9999991655349731
      ],
      "min": [
        -1.0,
        -0.9999904036521912,
        -0.9999991655349731
      ],
      "type": "VEC3"
    },
    {
      "bufferView": 1,
      "byteOffset": 524264,
      "componentType": 5126,
      "count": 65532,
      "max": [
        5.2193498611450195,
        5.224894046783447
      ],
      "min": [
        -4.220432281494141,
        -4.224985122680664
      ],
      "type": "VEC2"
    },
    {
      "bufferView": 0,
      "byteOffset": 469176,
      "componentType": 5125,
      "count": 111867,
      "type": "SCALAR"
    },
    {
      "bufferView": 2,
      "byteOffset": 3145560,
      "componentType": 5126,
      "count": 65533,
      "max": [
        0.8788272738456726,
        130.00404357910156,
        32.373008728027344
      ],
      "min": [
        -0.4354313015937805,
        -369.7628173828125,
        -361.6039733886719
      ],
      "type": "VEC3"
    },
    {
      "bufferView": 2,
      "byteOffset": 3931956,
      "componentType": 5126,
      "count": 65533,
      "max": [
        1.0,
        0.9999904036521912,
        0.9999991059303284
      ],
      "min": [
        -1.0,
        -0.9999903440475464,
        -0.9999990463256836
      ],
      "type": "VEC3"
    },
    {
      "bufferView": 1,
      "byteOffset": 1048520,
      "componentType": 5126,
      "count": 65533,
      "max": [
        5.2193498611450195,
        5.224894046783447
      ],
      "min": [
        -4.220432281494141,
        -4.224985122680664
      ],
      "type": "VEC2"
    },
    {
      "bufferView": 0,
      "byteOffset": 916644,
      "componentType": 5125,
      "count": 115530,
      "type": "SCALAR"
    },
    {
      "bufferView": 2,
      "byteOffset": 4718352,
      "componentType": 5126,
      "count": 65532,
      "max": [
        0.8800193667411804,
        130.00828552246094,
        32.373008728027344
      ],
      "min": [
        -0.43662339448928833,
        -369.7628173828125,
        -553.142578125
      ],
      "type": "VEC3"
    },
    {
      "bufferView": 2,
      "byteOffset": 5504736,
      "componentType": 5126,
      "count": 65532,
      "max": [
        1.0,
        0.9999904036521912,
        0.9999991059303284
      ],
      "min": [
        -1.0,
        -0.9999903440475464,
        -0.9999990463256836
      ],
      "type": "VEC3"
    },
    {
      "bufferView": 1,
      "byteOffset": 1572784,
      "componentType": 5126,
      "count": 65532,
      "max": [
        5.2193498611450195,
        5.224894046783447
      ],
      "min": [
        -4.220432281494141,
        -4.224985122680664
      ],
      "type": "VEC2"
    },
    {
      "bufferView": 0,
      "byteOffset": 1378764,
      "componentType": 5125,
      "count": 117753,
      "type": "SCALAR"
    },
    {
      "bufferView": 2,
      "byteOffset": 6291120,
      "componentType": 5126,
      "count": 65532,
      "max": [
        0.8118564486503601,
        -7.733821868896484,
        -492.5357360839844
      ],
      "min": [
        -0.4028042256832123,
        -369.7628173828125,
        -613.8046875
      ],
      "type": "VEC3"
    },
    {
      "bufferView": 2,
      "byteOffset": 7077504,
      "componentType": 5126,
      "count": 65532,
      "max": [
        1.0,
        0.9999904036521912,
        0.9999991655349731
      ],
      "min": [
        -1.0,
        -0.9999904036521912,
        -0.9999991655349731
      ],
      "type": "VEC3"
    },
    {
      "bufferView": 1,
      "byteOffset": 2097040,
      "componentType": 5126,
      "count": 65532,
      "max": [
        5.2193498611450195,
        5.224894046783447
      ],
      "min": [
        -4.220432281494141,
        -4.224985122680664
      ],
      "type": "VEC2"
    },
    {
      "bufferView": 0,
      "byteOffset": 1849776,
      "componentType": 5125,
      "count": 113343,
      "type": "SCALAR"
    },
    {
      "bufferView": 2,
      "byteOffset": 7863888,
      "componentType": 5126,
      "count": 16587,
      "max": [
        0.8118564486503601,
        -7.899284362792969,
        -553.1978149414063
      ],
      "min": [
        -0.4028042256832123,
        -249.2769012451172,
        -613.8046875
      ],
      "type": "VEC3"
    },
    {
      "bufferView": 2,
      "byteOffset": 8062932,
      "componentType": 5126,
      "count": 16587,
      "max": [
        1.0,
        0.9999902844429016,
        0.9999991655349731
      ],
      "min": [
        -1.0,
        -0.9999902248382568,
        -0.9999991655349731
      ],
      "type": "VEC3"
    },
    {
      "bufferView": 1,
      "byteOffset": 2621296,
      "componentType": 5126,
      "count": 16587,
      "max": [
        5.2193498611450195,
        5.224894046783447
      ],
      "min": [
        -4.187212944030762,
        -4.224985122680664
      ],
      "type": "VEC2"
    },
    {
      "bufferView": 0,
      "byteOffset": 2303148,
      "componentType": 5125,
      "count": 29727,
      "type": "SCALAR"
    },
    {
      "bufferView": 2,
      "byteOffset": 8261976,
      "componentType": 5126,
      "count": 65533,
      "max": [
        0.8800193667411804,
        130.00827026367188,
        -33.64614486694336
      ],
      "min": [
        -0.43662339448928833,
        -369.7628173828125,
        -885.5302124023438
      ],
      "type": "VEC3"
    },
    {
      "bufferView": 2,
      "byteOffset": 9048372,
      "componentType": 5126,
      "count": 65533,
      "max": [
        1.0,
        0.9999902844429016,
        0.9999991059303284
      ],
      "min": [
        -1.0,
        -0.9999903440475464,
        -0.9999990463256836
      ],
      "type": "VEC3"
    },
    {
      "bufferView": 1,
      "byteOffset": 2753992,
      "componentType": 5126,
      "count": 65533,
      "max": [
        5.2193498611450195,
        5.224894046783447
      ],
      "min": [
        -4.220432281494141,
        -4.224985122680664
      ],
      "type": "VEC2"
    },
    {
      "bufferView": 0,
      "byteOffset": 2422056,
      "componentType": 5125,
      "count": 117294,
      "type": "SCALAR"
    },
    {
      "bufferView": 2,
      "byteOffset": 9834768,
      "componentType": 5126,
      "count": 65532,
      "max": [
        0.8118564486503601,
        -7.733821868896484,
        -338.41668701171875
      ],
      "min": [
        -0.4028042256832123,
        -369.7628173828125,
        -613.8046875
      ],
      "type": "VEC3"
    },
    {
      "bufferView": 2,
      "byteOffset": 10621152,
      "componentType": 5126,
      "count": 65532,
      "max": [
        1.0,
        0.9999904036521912,
        0.9999991655349731
      ],
      "min": [
        -1.0,
        -0.9999904036521912,
        -0.9999991655349731
      ],
      "type": "VEC3"
    },
    {
      "bufferView": 1,
      "byteOffset": 3278256,
      "componentType": 5126,
      "count": 65532,
      "max": [
        5.2193498611450195,
        5.224894046783447
      ],
      "min": [
        -4.220432281494141,
        -4.224985122680664
      ],
      "type": "VEC2"
    },
    {
      "bufferView": 0,
      "byteOffset": 2891232,
      "componentType": 5125,
      "count": 111867,
      "type": "SCALAR"
    },
    {
      "bufferView": 2,
      "byteOffset": 11407536,
      "componentType": 5126,
      "count": 65533,
      "max": [
        0.8788272738456726,
        130.00404357910156,
        32.373008728027344
      ],
      "min": [
        -0.4354313015937805,
        -369.7628173828125,
        -361.6039733886719
      ],
      "type": "VEC3"
    },
    {
      "bufferView": 2,
      "byteOffset": 12193932,
      "componentType": 5126,
      "count": 65533,
      "max": [
        1.0,
        0.9999904036521912,
        0.9999991059303284
      ],
      "min": [
        -1.0,
        -0.9999903440475464,
        -0.9999990463256836
      ],
      "type": "VEC3"
    },
    {
      "bufferView": 1,
      "byteOffset": 3802512,
      "componentType": 5126,
      "count": 65533,
      "max": [
        5.2193498611450195,
        5.224894046783447
      ],
      "min": [
        -4.220432281494141,
        -4.224985122680664
      ],
      "type": "VEC2"
    },
    {
      "bufferView": 0,
      "byteOffset": 3338700,
      "componentType": 5125,
      "count": 115530,
      "type": "SCALAR"
    },
    {
      "bufferView": 2,
      "byteOffset": 12980328,
      "componentType": 5126,
      "count": 65532,
      "max": [
        0.8800193667411804,
        130.00828552246094,
        32.373008728027344
      ],
      "min": [
        -0.43662339448928833,
        -369.7628173828125,
        -553.142578125
      ],
      "type": "VEC3"
    },
    {
      "bufferView": 2,
      "byteOffset": 13766712,
      "componentType": 5126,
      "count": 65532,
      "max": [
        1.0,
        0.9999904036521912,
        0.9999991059303284
      ],
      "min": [
        -1.0,
        -0.9999903440475464,
        -0.9999990463256836
      ],
      "type": "VEC3"
    },
    {
      "bufferView": 1,
      "byteOffset": 4326776,
      "componentType": 5126,
      "count": 65532,
      "max": [
        5.2193498611450195,
        5.224894046783447
      ],
      "min": [
        -4.220432281494141,
        -4.224985122680664
      ],
      "type": "VEC2"
    },
    {
      "bufferView": 0,
      "byteOffset": 3800820,
      "componentType": 5125,
      "count": 117753,
      "type": "SCALAR"
    },
    {
      "bufferView": 2,
      "byteOffset": 14553096,
      "componentType": 5126,
      "count": 65532,
      "max": [
        0.8118564486503601,
        -7.733821868896484,
        -492.5357360839844
      ],
      "min": [
        -0.4028042256832123,
        -369.7628173828125,
        -613.8046875
      ],
      "type": "VEC3"
    },
    {
      "bufferView": 2,
      "byteOffset": 15339480,
      "componentType": 5126,
      "count": 65532,
      "max": [
        1.0,
        0.9999904036521912,
        0.9999991655349731
      ],
      "min": [
        -1.0,
        -0.9999904036521912,
        -0.9999991655349731
      ],
      "type": "VEC3"
    },
    {
      "bufferView": 1,
      "byteOffset": 4851032,
      "componentType": 5126,
      "count": 65532,
      "max": [
        5.2193498611450195,
        5.224894046783447
      ],
      "min": [
        -4.220432281494141,
        -4.224985122680664
      ],
      "type": "VEC2"
    },
    {
      "bufferView": 0,
      "byteOffset": 4271832,
      "componentType": 5125,
      "count": 113343,
      "type": "SCALAR"
    },
    {
      "bufferView": 2,
      "byteOffset": 16125864,
      "componentType": 5126,
      "count": 16587,
      "max": [
        0.8118564486503601,
        -7.899284362792969,
        -553.1978149414063
      ],
      "min": [
        -0.4028042256832123,
        -249.2769012451172,
        -613.8046875
      ],
      "type": "VEC3"
    },
    {
      "bufferView": 2,
      "byteOffset": 16324908,
      "componentType": 5126,
      "count": 16587,
      "max": [
        1.0,
        0.9999902844429016,
        0.9999991655349731
      ],
      "min": [
        -1.0,
        -0.9999902248382568,
        -0.9999991655349731
      ],
      "type": "VEC3"
    },
    {
      "bufferView": 1,
      "byteOffset": 5375288,
      "componentType": 5126,
      "count": 16587,
      "max": [
        5.2193498611450195,
        5.224894046783447
      ],
      "min": [
        -4.187212944030762,
        -4.224985122680664
      ],
      "type": "VEC2"
    },
    {
      "bufferView": 0,
      "byteOffset": 4725204,
      "componentType": 5125,
      "count": 29727,
      "type": "SCALAR"
    },
    {
      "bufferView": 2,
      "byteOffset": 16523952,
      "componentType": 5126,
      "count": 65532,
      "max": [
        456.48785400390625,
        130.00827026367188,
        -891.5632934570313
      ],
      "min": [
        4.72122049331665,
        0.29847025871276855,
        -892.9960327148438
      ],
      "type": "VEC3"
    },
    {
      "bufferView": 2,
      "byteOffset": 17310336,
      "componentType": 5126,
      "count": 65532,
      "max": [
        0.999999463558197,
        0.9999917149543762,
        1.0
      ],
      "min": [
        -0.999999463558197,
        -0.9999917149543762,
        -1.0
      ],
      "type": "VEC3"
    },
    {
      "bufferView": 1,
      "byteOffset": 5507984,
      "componentType": 5126,
      "count": 65532,
      "max": [
        5.2193498611450195,
        5.224894046783447
      ],
      "min": [
        -4.220432281494141,
        -4.224985122680664
      ],
      "type": "VEC2"
    },
    {
      "bufferView": 0,
      "byteOffset": 4844112,
      "componentType": 5125,
      "count": 112146,
      "type": "SCALAR"
    },
    {
      "bufferView": 2,
      "byteOffset": 18096720,
      "componentType": 5126,
      "count": 65532,
      "max": [
        373.1019287109375,
        130.00827026367188,
        -891.5632934570313
      ],
      "min": [
        4.72122049331665,
        0.29847025871276855,
        -892.9960327148438
      ],
      "type": "VEC3"
    },
    {
      "bufferView": 2,
      "byteOffset": 18883104,
      "componentType": 5126,
      "count": 65532,
      "max": [
        0.9999994039535522,
        0.9999917149543762,
        1.0
      ],
      "min": [
        -0.9999994039535522,
        -0.9999917149543762,
        -1.0
      ],
      "type": "VEC3"
    },
    {
      "bufferView": 1,
      "byteOffset": 6032240,
      "componentType": 5126,
      "count": 65532,
      "max": [
        5.2193498611450195,
        5.224894046783447
      ],
      "min": [
        -4.220432281494141,
        -4.224985122680664
      ],
      "type": "VEC2"
    },
    {
      "bufferView": 0,
      "byteOffset": 5292696,
      "componentType": 5125,
      "count": 115461,
      "type": "SCALAR"
    },
    {
      "bufferView": 2,
      "byteOffset": 19669488,
      "componentType": 5126,
      "count": 5410,
      "max": [
        373.1019287109375,
        130.00827026367188,
        -891.6085205078125
      ],
      "min": [
        312.7293395996094,
        0.29847025871276855,
        -892.9141845703125
      ],
      "type": "VEC3"
    },
    {
      "bufferView": 2,
      "byteOffset": 19734408,
      "componentType": 5126,
      "count": 5410,
      "max": [
        0.9999994039535522,
        0.9999917149543762,
        1.0
      ],
      "min": [
        -0.9999994039535522,
        -0.9999917149543762,
        -0.9964326620101929
      ],
      "type": "VEC3"
    },
    {
      "bufferView": 1,
      "byteOffset": 6556496,
      "componentType": 5126,
      "count": 5410,
      "max": [
        5.21934700012207,
        5.224892616271973
      ],
      "min": [
        -4.187212944030762,
        -4.224985122680664
      ],
      "type": "VEC2"
    },
    {
      "bufferView": 0,
      "byteOffset": 5754540,
      "componentType": 5125,
      "count": 8607,
      "type": "SCALAR"
    },
    {
      "bufferView": 2,
      "byteOffset": 19799328,
      "componentType": 5126,
      "count": 65532,
      "max": [
        456.48785400390625,
        130.00827026367188,
        -891.5632934570313
      ],
      "min": [
        4.72122049331665,
        0.29847025871276855,
        -892.9960327148438
      ],
      "type": "VEC3"
    },
    {
      "bufferView": 2,
      "byteOffset": 20585712,
      "componentType": 5126,
      "count": 65532,
      "max": [
        0.999999463558197,
        0.9999917149543762,
        1.0
      ],
      "min": [
        -0.999999463558197,
        -0.9999917149543762,
        -1.0
      ],
      "type": "VEC3"
    },
    {
      "bufferView": 1,
      "byteOffset": 6599776,
      "componentType": 5126,
      "count": 65532,
      "max": [
        5.2193498611450195,
        5.224894046783447
      ],
      "min": [
        -4.220432281494141,
        -4.224985122680664
      ],
      "type": "VEC2"
    },
    {
      "bufferView": 0,
      "byteOffset": 5788968,
      "componentType": 5125,
      "count": 112146,
      "type": "SCALAR"
    },
    {
      "bufferView": 2,
      "byteOffset": 21372096,
      "componentType": 5126,
      "count": 65532,
      "max": [
        373.1019287109375,
        130.00827026367188,
        -891.5632934570313
      ],
      "min": [
        4.72122049331665,
        0.29847025871276855,
        -892.9960327148438
      ],
      "type": "VEC3"
    },
    {
      "bufferView": 2,
      "byteOffset": 22158480,
      "componentType": 5126,
      "count": 65532,
      "max": [
        0.9999994039535522,
        0.9999917149543762,
        1.0
      ],
      "min": [
        -0.9999994039535522,
        -0.9999917149543762,
        -1.0
      ],
      "type": "VEC3"
    },
    {
      "bufferView": 1,
      "byteOffset": 7124032,
      "componentType": 5126,
      "count": 65532,
      "max": [
        5.2193498611450195,
        5.224894046783447
      ],
      "min": [
        -4.220432281494141,
        -4.224985122680664
      ],
      "type": "VEC2"
    },
    {
      "bufferView": 0,
      "byteOffset": 6237552,
      "componentType": 5125,
      "count": 115461,
      "type": "SCALAR"
    },
    {
      "bufferView": 2,
      "byteOffset": 22944864,
      "componentType": 5126,
      "count": 5410,
      "max": [
        373.1019287109375,
        130.00827026367188,
        -891.6085205078125
      ],
      "min": [
        312.7293395996094,
        0.29847025871276855,
        -892.9141845703125
      ],
      "type": "VEC3"
    },
    {
      "bufferView": 2,
      "byteOffset": 23009784,
      "componentType": 5126,
      "count": 5410,
      "max": [
        0.9999994039535522,
        0.9999917149543762,
        1.0
      ],
      "min": [
        -0.9999994039535522,
        -0.9999917149543762,
        -0.9964326620101929
      ],
      "type": "VEC3"
    },
    {
      "bufferView": 1,
      "byteOffset": 7648288,
      "componentType": 5126,
      "count": 5410,
      "max": [
        5.21934700012207,
        5.224892616271973
      ],
      "min": [
        -4.187212944030762,
        -4.224985122680664
      ],
      "type": "VEC2"
    },
    {
      "bufferView": 0,
      "byteOffset": 6699396,
      "componentType": 5125,
      "count": 8607,
      "type": "SCALAR"
    },
    {
      "bufferView": 2,
      "byteOffset": 23074704,
      "componentType": 5126,
      "count": 10604,
      "max": [
        57.22576904296875,
        279.02117919921875,
        571.9625244140625
      ],
      "min": [
        -4933.5830078125,
        -207.73179626464844,
        -58.88656234741211
      ],
      "type": "VEC3"
    },
    {
      "bufferView": 2,
      "byteOffset": 23201952,
      "componentType": 5126,
      "count": 10604,
      "max": [
        0.9999910593032837,
        0.9999940991401672,
        0.9998295903205872
      ],
      "min": [
        -0.9998927712440491,
        -0.5435987710952759,
        -0.9999905824661255
      ],
      "type": "VEC3"
    },
    {
      "bufferView": 1,
      "byteOffset": 7691568,
      "componentType": 5126,
      "count": 10604,
      "max": [
        1.0,
        0.9922199845314026
      ],
      "min": [
        0.0,
        0.0
      ],
      "type": "VEC2"
    },
    {
      "bufferView": 0,
      "byteOffset": 6733824,
      "componentType": 5125,
      "count": 59304,
      "type": "SCALAR"
    },
    {
      "bufferView": 2,
      "byteOffset": 23329200,
      "componentType": 5126,
      "count": 8832,
      "max": [
        50204.578125,
        277.58807373046875,
        29696.75390625
      ],
      "min": [
        11464.1328125,
        -112.00862884521484,
        -5969.802734375
      ],
      "type": "VEC3"
    },
    {
      "bufferView": 2,
      "byteOffset": 23435184,
      "componentType": 5126,
      "count": 8832,
      "max": [
        0.9983356595039368,
        1.0,
        0.9999998807907104
      ],
      "min": [
        -0.9983356595039368,
        -1.0,
        -0.9999998211860657
      ],
      "type": "VEC3"
    },
    {
      "bufferView": 1,
      "byteOffset": 7776400,
      "componentType": 5126,
      "count": 8832,
      "max": [
        3.1272215843200684,
        12.127250671386719
      ],
      "min": [
        -2.1272215843200684,
        -11.117250442504883
      ],
      "type": "VEC2"
    },
    {
      "bufferView": 0,
      "byteOffset": 6971040,
      "componentType": 5125,
      "count": 17112,
      "type": "SCALAR"
    },
    {
      "bufferView": 2,
      "byteOffset": 23541168,
      "componentType": 5126,
      "count": 2312,
      "max": [
        18.58697509765625,
        -582.7887573242188,
        -110.36702728271484
      ],
      "min": [
        -18.587797164916992,
        -858.0541381835938,
        -1912.383056640625
      ],
      "type": "VEC3"
    },
    {
      "bufferView": 2,
      "byteOffset": 23568912,
      "componentType": 5126,
      "count": 2312,
      "max": [
        0.999986469745636,
        1.0,
        1.0
      ],
      "min": [
        -0.999986469745636,
        -1.0,
        -1.0
      ],
      "type": "VEC3"
    },
    {
      "bufferView": 1,
      "byteOffset": 7847056,
      "componentType": 5126,
      "count": 2312,
      "max": [
        1.0000001192092896,
        1.0
      ],
      "min": [
        0.0,
        0.0
      ],
      "type": "VEC2"
    },
    {
      "bufferView": 0,
      "byteOffset": 7039488,
      "componentType": 5125,
      "count": 3372,
      "type": "SCALAR"
    },
    {
      "bufferView": 2,
      "byteOffset": 23596656,
      "componentType": 5126,
      "count": 18824,
      "max": [
        11.354748725891113,
        -633.6942749023438,
        -120.99580383300781
      ],
      "min": [
        -1.0682628154754639,
        -818.0965576171875,
        -1903.6861572265625
      ],
      "type": "VEC3"
    },
    {
      "bufferView": 2,
      "byteOffset": 23822544,
      "componentType": 5126,
      "count": 18824,
      "max": [
        1.0,
        1.0,
        1.0
      ],
      "min": [
        -1.0,
        -1.0,
        -1.0
      ],
      "type": "VEC3"
    },
    {
      "bufferView": 1,
      "byteOffset": 7865552,
      "componentType": 5126,
      "count": 18824,
      "max": [
        1.0,
        1.0
      ],
      "min": [
        0.0,
        0.0
      ],
      "type": "VEC2"
    },
    {
      "bufferView": 0,
      "byteOffset": 7052976,
      "componentType": 5125,
      "count": 32292,
      "type": "SCALAR"
    },
    {
      "bufferView": 2,
      "byteOffset": 24048432,
      "componentType": 5126,
      "count": 384,
      "max": [
        320.6976013183594,
        100.0000228881836,
        22153.50390625
      ],
      "min": [
        -1130.86376953125,
        -100.0,
        -100.0
      ],
      "type": "VEC3"
    },
    {
      "bufferView": 2,
      "byteOffset": 24053040,
      "componentType": 5126,
      "count": 384,
      "max": [
        1.0,
        1.0,
        1.0
      ],
      "min": [
        -1.0,
        -1.0,
        -1.0
      ],
      "type": "VEC3"
    },
    {
      "bufferView": 1,
      "byteOffset": 8016144,
      "componentType": 5126,
      "count": 384,
      "max": [
        0.875,
        1.0
      ],
      "min": [
        0.125,
        0.0
      ],
      "type": "VEC2"
    },
    {
      "bufferView": 0,
      "byteOffset": 7182144,
      "componentType": 5125,
      "count": 576,
      "type": "SCALAR"
    },
    {
      "bufferView": 2,
      "byteOffset": 24057648,
      "componentType": 5126,
      "count": 188,
      "max": [
        100.0,
        100.0,
        100.0
      ],
      "min": [
        -100.0,
        -883.7259521484375,
        -100.0
      ],
      "type": "VEC3"
    },
    {
      "bufferView": 2,
      "byteOffset": 24059904,
      "componentType": 5126,
      "count": 188,
      "max": [
        1.0,
        1.0,
        1.0
      ],
      "min": [
        -1.0,
        0.0,
        -1.0
      ],
      "type": "VEC3"
    },
    {
      "bufferView": 1,
      "byteOffset": 8019216,
      "componentType": 5126,
      "count": 188,
      "max": [
        6.526640892028809,
        6.526640892028809
      ],
      "min": [
        -5.526641368865967,
        -1.5088810920715332
      ],
      "type": "VEC2"
    },
    {
      "bufferView": 0,
      "byteOffset": 7184448,
      "componentType": 5125,
      "count": 360,
      "type": "SCALAR"
    },
    {
      "bufferView": 2,
      "byteOffset": 24062160,
      "componentType": 5126,
      "count": 132,
      "max": [
        100.0,
        99.99998474121094,
        100.0
      ],
      "min": [
        -100.0,
        -883.7259521484375,
        -100.0
      ],
      "type": "VEC3"
    },
    {
      "bufferView": 2,
      "byteOffset": 24063744,
      "componentType": 5126,
      "count": 132,
      "max": [
        0.0,
        1.0,
        0.0
      ],
      "min": [
        0.0,
        -1.0,
        0.0
      ],
      "type": "VEC3"
    },
    {
      "bufferView": 1,
      "byteOffset": 8020720,
      "componentType": 5126,
      "count": 132,
      "max": [
        6.526640892028809,
        2.41474986076355
      ],
      "min": [
        -5.161159515380859,
        -5.526640892028809
      ],
      "type": "VEC2"
    },
    {
      "bufferView": 0,
      "byteOffset": 7185888,
      "componentType": 5125,
      "count": 510,
      "type": "SCALAR"
    },
    {
      "bufferView": 2,
      "byteOffset": 24065328,
      "componentType": 5126,
      "count": 106,
      "max": [
        93.71482849121094,
        99.99998474121094,
        93.71482849121094
      ],
      "min": [
        -93.71482849121094,
        99.99998474121094,
        -93.71482849121094
      ],
      "type": "VEC3"
    },
    {
      "bufferView": 2,
      "byteOffset": 24066600,
      "componentType": 5126,
      "count": 106,
      "max": [
        0.0,
        1.0,
        0.0
      ],
      "min": [
        0.0,
        1.0,
        0.0
      ],
      "type": "VEC3"
    },
    {
      "bufferView": 1,
      "byteOffset": 8021776,
      "componentType": 5126,
      "count": 106,
      "max": [
        -1.5088801383972168,
        6.400379657745361
      ],
      "min": [
        -5.4003801345825195,
        -1.256355881690979
      ],
      "type": "VEC2"
    },
    {
      "bufferView": 0,
      "byteOffset": 7187928,
      "componentType": 5125,
      "count": 360,
      "type": "SCALAR"
    },
    {
      "bufferView": 2,
      "byteOffset": 24067872,
      "componentType": 5126,
      "count": 2359,
      "max": [
        13329.046875,
        4326.97119140625,
        12924.1865234375
      ],
      "min": [
        -32967.27734375,
        533.746337890625,
        -12868.3564453125
      ],
      "type": "VEC3"
    },
    {
      "bufferView": 2,
      "byteOffset": 24096180,
      "componentType": 5126,
      "count": 2359,
      "max": [
        0.9999943375587463,
        1.0,
        0.9999988079071045
      ],
      "min": [
        -0.9999997019767761,
        -1.0,
        -0.9999921917915344
      ],
      "type": "VEC3"
    },
    {
      "bufferView": 1,
      "byteOffset": 8022624,
      "componentType": 5126,
      "count": 2359,
      "max": [
        0.9864729046821594,
        0.9710060954093933
      ],
      "min": [
        0.013962559401988983,
        0.021984774619340897
      ],
      "type": "VEC2"
    },
    {
      "bufferView": 0,
      "byteOffset": 7189368,
      "componentType": 5125,
      "count": 12432,
      "type": "SCALAR"
    },
    {
      "bufferView": 2,
      "byteOffset": 24124488,
      "componentType": 5126,
      "count": 2359,
      "max": [
        13329.046875,
        4326.97119140625,
        12924.1865234375
      ],
      "min": [
        -32967.27734375,
        533.746337890625,
        -12868.3564453125
      ],
      "type": "VEC3"
    },
    {
      "bufferView": 2,
      "byteOffset": 24152796,
      "componentType": 5126,
      "count": 2359,
      "max": [
        0.9999943375587463,
        1.0,
        0.9999988079071045
      ],
      "min": [
        -0.9999997019767761,
        -1.0,
        -0.9999921917915344
      ],
      "type": "VEC3"
    },
    {
      "bufferView": 1,
      "byteOffset": 8041496,
      "componentType": 5126,
      "count": 2359,
      "max": [
        0.9864729046821594,
        0.9710060954093933
      ],
      "min": [
        0.013962559401988983,
        0.021984774619340897
      ],
      "type": "VEC2"
    },
    {
      "bufferView": 0,
      "byteOffset": 7239096,
      "componentType": 5125,
      "count": 12432,
      "type": "SCALAR"
    },
    {
      "bufferView": 2,
      "byteOffset": 24181104,
      "componentType": 5126,
      "count": 2040,
      "max": [
        1993.7955322265625,
        7.920026779174805,
        2014.5579833984375
      ],
      "min": [
        -2260.94140625,
        -33.229984283447266,
        -1635.762939453125
      ],
      "type": "VEC3"
    },
    {
      "bufferView": 2,
      "byteOffset": 24205584,
      "componentType": 5126,
      "count": 2040,
      "max": [
        0.9998077154159546,
        1.0,
        0.9998080730438232
      ],
      "min": [
        -0.9998074173927307,
        -1.0,
        -0.9998080730438232
      ],
      "type": "VEC3"
    },
    {
      "bufferView": 1,
      "byteOffset": 8060368,
      "componentType": 5126,
      "count": 2040,
      "max": [
        3.1272215843200684,
        12.127250671386719
      ],
      "min": [
        -2.1272215843200684,
        -11.117250442504883
      ],
      "type": "VEC2"
    },
    {
      "bufferView": 0,
      "byteOffset": 7288824,
      "componentType": 5125,
      "count": 3396,
      "type": "SCALAR"
    },
    {
      "bufferView": 2,
      "byteOffset": 24230064,
      "componentType": 5126,
      "count": 56,
      "max": [
        1790.6259765625,
        0.47968700528144836,
        1782.81787109375
      ],
      "min": [
        -2048.053466796875,
        -10.6431303024292,
        -1483.6864013671875
      ],
      "type": "VEC3"
    },
    {
      "bufferView": 2,
      "byteOffset": 24230736,
      "componentType": 5126,
      "count": 56,
      "max": [
        0.000442289951024577,
        0.9918122887611389,
        0.1018219143152237
      ],
      "min": [
        -0.07707653939723969,
        -0.9999998211860657,
        -0.0005842868122272193
      ],
      "type": "VEC3"
    },
    {
      "bufferView": 1,
      "byteOffset": 8076688,
      "componentType": 5126,
      "count": 56,
      "max": [
        0.27020692825317383,
        0.2881639897823334
      ],
      "min": [
        0.04862138256430626,
        0.0665784478187561
      ],
      "type": "VEC2"
    },
    {
      "bufferView": 0,
      "byteOffset": 7302408,
      "componentType": 5125,
      "count": 84,
      "type": "SCALAR"
    },
    {
      "bufferView": 2,
      "byteOffset": 24231408,
      "componentType": 5126,
      "count": 2040,
      "max": [
        1993.7955322265625,
        7.920026779174805,
        2014.5579833984375
      ],
      "min": [
        -2260.94140625,
        -33.229984283447266,
        -1635.762939453125
      ],
      "type": "VEC3"
    },
    {
      "bufferView": 2,
      "byteOffset": 24255888,
      "componentType": 5126,
      "count": 2040,
      "max": [
        0.9998077154159546,
        1.0,
        0.9998080730438232
      ],
      "min": [
        -0.9998074173927307,
        -1.0,
        -0.9998080730438232
      ],
      "type": "VEC3"
    },
    {
      "bufferView": 1,
      "byteOffset": 8077136,
      "componentType": 5126,
      "count": 2040,
      "max": [
        3.1272215843200684,
        12.127250671386719
      ],
      "min": [
        -2.1272215843200684,
        -11.117250442504883
      ],
      "type": "VEC2"
    },
    {
      "bufferView": 0,
      "byteOffset": 7302744,
      "componentType": 5125,
      "count": 3396,
      "type": "SCALAR"
    },
    {
      "bufferView": 2,
      "byteOffset": 24280368,
      "componentType": 5126,
      "count": 56,
      "max": [
        1790.6259765625,
        0.47968700528144836,
        1782.81787109375
      ],
      "min": [
        -2048.053466796875,
        -10.6431303024292,
        -1483.6864013671875
      ],
      "type": "VEC3"
    },
    {
      "bufferView": 2,
      "byteOffset": 24281040,
      "componentType": 5126,
      "count": 56,
      "max": [
        0.000442289951024577,
        0.9918122887611389,
        0.1018219143152237
      ],
      "min": [
        -0.07707653939723969,
        -0.9999998211860657,
        -0.0005842868122272193
      ],
      "type": "VEC3"
    },
    {
      "bufferView": 1,
      "byteOffset": 8093456,
      "componentType": 5126,
      "count": 56,
      "max": [
        0.27020692825317383,
        0.2881639897823334
      ],
      "min": [
        0.04862138256430626,
        0.0665784478187561
      ],
      "type": "VEC2"
    },
    {
      "bufferView": 0,
      "byteOffset": 7316328,
      "componentType": 5125,
      "count": 84,
      "type": "SCALAR"
    },
    {
      "bufferView": 2,
      "byteOffset": 24281712,
      "componentType": 5126,
      "count": 2040,
      "max": [
        1993.7955322265625,
        7.920026779174805,
        2014.5579833984375
      ],
      "min": [
        -2260.94140625,
        -33.229984283447266,
        -1635.762939453125
      ],
      "type": "VEC3"
    },
    {
      "bufferView": 2,
      "byteOffset": 24306192,
      "componentType": 5126,
      "count": 2040,
      "max": [
        0.9998077154159546,
        1.0,
        0.9998080730438232
      ],
      "min": [
        -0.9998074173927307,
        -1.0,
        -0.9998080730438232
      ],
      "type": "VEC3"
    },
    {
      "bufferView": 1,
      "byteOffset": 8093904,
      "componentType": 5126,
      "count": 2040,
      "max": [
        3.1272215843200684,
        12.127250671386719
      ],
      "min": [
        -2.1272215843200684,
        -11.117250442504883
      ],
      "type": "VEC2"
    },
    {
      "bufferView": 0,
      "byteOffset": 7316664,
      "componentType": 5125,
      "count": 3396,
      "type": "SCALAR"
    },
    {
      "bufferView": 2,
      "byteOffset": 24330672,
      "componentType": 5126,
      "count": 56,
      "max": [
        1790.6259765625,
        0.47968700528144836,
        1782.81787109375
      ],
      "min": [
        -2048.053466796875,
        -10.6431303024292,
        -1483.6864013671875
      ],
      "type": "VEC3"
    },
    {
      "bufferView": 2,
      "byteOffset": 24331344,
      "componentType": 5126,
      "count": 56,
      "max": [
        0.000442289951024577,
        0.9918122887611389,
        0.1018219143152237
      ],
      "min": [
        -0.07707653939723969,
        -0.9999998211860657,
        -0.0005842868122272193
      ],
      "type": "VEC3"
    },
    {
      "bufferView": 1,
      "byteOffset": 8110224,
      "componentType": 5126,
      "count": 56,
      "max": [
        0.27020692825317383,
        0.2881639897823334
      ],
      "min": [
        0.04862138256430626,
        0.0665784478187561
      ],
      "type": "VEC2"
    },
    {
      "bufferView": 0,
      "byteOffset": 7330248,
      "componentType": 5125,
      "count": 84,
      "type": "SCALAR"
    },
    {
      "bufferView": 2,
      "byteOffset": 24332016,
      "componentType": 5126,
      "count": 2040,
      "max": [
        1993.7955322265625,
        7.920026779174805,
        2014.5579833984375
      ],
      "min": [
        -2260.94140625,
        -33.229984283447266,
        -1635.762939453125
      ],
      "type": "VEC3"
    },
    {
      "bufferView": 2,
      "byteOffset": 24356496,
      "componentType": 5126,
      "count": 2040,
      "max": [
        0.9998077154159546,
        1.0,
        0.9998080730438232
      ],
      "min": [
        -0.9998074173927307,
        -1.0,
        -0.9998080730438232
      ],
      "type": "VEC3"
    },
    {
      "bufferView": 1,
      "byteOffset": 8110672,
      "componentType": 5126,
      "count": 2040,
      "max": [
        3.1272215843200684,
        12.127250671386719
      ],
      "min": [
        -2.1272215843200684,
        -11.117250442504883
      ],
      "type": "VEC2"
    },
    {
      "bufferView": 0,
      "byteOffset": 7330584,
      "componentType": 5125,
      "count": 3396,
      "type": "SCALAR"
    },
    {
      "bufferView": 2,
      "byteOffset": 24380976,
      "componentType": 5126,
      "count": 56,
      "max": [
        1790.6259765625,
        0.47968700528144836,
        1782.81787109375
      ],
      "min": [
        -2048.053466796875,
        -10.6431303024292,
        -1483.6864013671875
      ],
      "type": "VEC3"
    },
    {
      "bufferView": 2,
      "byteOffset": 24381648,
      "componentType": 5126,
      "count": 56,
      "max": [
        0.000442289951024577,
        0.9918122887611389,
        0.1018219143152237
      ],
      "min": [
        -0.07707653939723969,
        -0.9999998211860657,
        -0.0005842868122272193
      ],
      "type": "VEC3"
    },
    {
      "bufferView": 1,
      "byteOffset": 8126992,
      "componentType": 5126,
      "count": 56,
      "max": [
        0.27020692825317383,
        0.2881639897823334
      ],
      "min": [
        0.04862138256430626,
        0.0665784478187561
      ],
      "type": "VEC2"
    },
    {
      "bufferView": 0,
      "byteOffset": 7344168,
      "componentType": 5125,
      "count": 84,
      "type": "SCALAR"
    }
  ],
  "asset": {
    "extras": {
      "author": "arca_done (https://sketchfab.com/arca_done)",
      "license": "CC-BY-4.0 (http://creativecommons.org/licenses/by/4.0/)",
      "source": "https://sketchfab.com/3d-models/padel-court-or-paddle-court-ef977f0912af4297bd842ab7bb82dde1",
      "title": "Padel Court or / Paddle Court"
    },
    "generator": "Sketchfab-12.68.0",
    "version": "2.0"
  },
  "bufferViews": [
    {
      "buffer": 0,
      "byteLength": 7344504,
      "name": "floatBufferViews",
      "target": 34963
    },
    {
      "buffer": 0,
      "byteLength": 8127440,
      "byteOffset": 7344504,
      "byteStride": 8,
      "name": "floatBufferViews",
      "target": 34962
    },
    {
      "buffer": 0,
      "byteLength": 24382320,
      "byteOffset": 15471944,
      "byteStride": 12,
      "name": "floatBufferViews",
      "target": 34962
    }
  ],
  "buffers": [
    {
      "byteLength": 39854264,
      "uri": "scene.bin"
    }
  ],
  "images": [
    {
      "uri": "textures/Cemento_baseColor.png"
    },
    {
      "uri": "textures/Material_2_baseColor.jpeg"
    }
  ],
  "materials": [
    {
      "doubleSided": true,
      "name": "Padelwqhite",
      "pbrMetallicRoughness": {
        "baseColorFactor": [
          0.8,
          0.8,
          0.8,
          1.0
        ],
        "metallicFactor": 0.0,
        "roughnessFactor": 0.8040408205773457
      }
    },
    {
      "doubleSided": true,
      "name": "BluePlastic",
      "pbrMetallicRoughness": {
        "baseColorFactor": [
          0.012537,
          0.0175799,
          0.274676,
          1.0
        ],
        "metallicFactor": 0.0,
        "roughnessFactor": 0.9921580832441389
      }
    },
    {
      "doubleSided": true,
      "name": "03_-_Default",
      "pbrMetallicRoughness": {
        "baseColorFactor": [
          0.972549,
          0.972549,
          0.972549,
          1.0
        ],
        "metallicFactor": 0.0,
        "roughnessFactor": 0.8843437809511219
      }
    },
    {
      "doubleSided": true,
      "name": "02_-_Default",
      "pbrMetallicRoughness": {
        "baseColorFactor": [
          0.0,
          0.0,
          0.0,
          1.0
        ],
        "metallicFactor": 0.0
      }
    },
    {
      "alphaMode": "BLEND",
      "doubleSided": true,
      "name": "Plastic",
      "pbrMetallicRoughness": {
        "baseColorFactor": [
          0.057067879566210004,
          0.5154569063926939,
          0.7990867579908676,
          0.15371437778547933
        ],
        "metallicFactor": 0.0,
        "roughnessFactor": 0.9018405073823295
      }
    },
    {
      "doubleSided": true,
      "name": "Cemento",
      "pbrMetallicRoughness": {
        "baseColorTexture": {
          "index": 0
        },
        "metallicFactor": 0.0,
        "roughnessFactor": 0.8211145618000169
      }
    },
    {
      "doubleSided": true,
      "name": "PadelCOlor",
      "pbrMetallicRoughness": {
        "baseColorFactor": [
          0.0756434,
          0.162709,
          0.8,
          1.0
        ],
        "metallicFactor": 0.0,
        "roughnessFactor": 0.9574674684414826
      }
    },
    {
      "doubleSided": true,
      "name": "Material.002",
      "pbrMetallicRoughness": {
        "baseColorFactor": [
          0.8,
          0.8,
          0.8,
          1.0
        ],
        "metallicFactor": 0.0,
        "roughnessFactor": 0.8211145618000169
      }
    },
    {
      "doubleSided": true,
      "name": "Material_2",
      "pbrMetallicRoughness": {
        "baseColorTexture": {
          "index": 1
        },
        "metallicFactor": 0.0,
        "roughnessFactor": 0.93007462163784
      }
    },
    {
      "doubleSided": true,
      "emissiveFactor": [
        1.0,
        1.0,
        1.0
      ],
      "name": "Emission",
      "pbrMetallicRoughness": {
        "baseColorFactor": [
          0.8,
          0.8,
          0.8,
          1.0
        ],
        "metallicFactor": 0.0,
        "roughnessFactor": 0.8211145618000169
      }
    }
  ],
  "meshes": [
    {
      "name": "ReteCampoPiccolo1.020_Padelwqhite_0",
      "primitives": [
        {
          "attributes": {
            "NORMAL": 1,
            "POSITION": 0,
            "TEXCOORD_0": 2
          },
          "indices": 3,
          "material": 0,
          "mode": 4
        }
      ]
    },
    {
      "name": "ReteCampoPiccolo1.020_Padelwqhite_0",
      "primitives": [
        {
          "attributes": {
            "NORMAL": 5,
            "POSITION": 4,
            "TEXCOORD_0": 6
          },
          "indices": 7,
          "material": 0,
          "mode": 4
        }
      ]
    },
    {
      "name": "ReteCampoPiccolo1.020_Padelwqhite_0",
      "primitives": [
        {
          "attributes": {
            "NORMAL": 9,
            "POSITION": 8,
            "TEXCOORD_0": 10
          },
          "indices": 11,
          "material": 0,
          "mode": 4
        }
      ]
    },
    {
      "name": "ReteCampoPiccolo1.020_Padelwqhite_0",
      "primitives": [
        {
          "attributes": {
            "NORMAL": 13,
            "POSITION": 12,
            "TEXCOORD_0": 14
          },
          "indices": 15,
          "material": 0,
          "mode": 4
        }
      ]
    },
    {
      "name": "ReteCampoPiccolo1.020_Padelwqhite_0",
      "primitives": [
        {
          "attributes": {
            "NORMAL": 17,
            "POSITION": 16,
            "TEXCOORD_0": 18
          },
          "indices": 19,
          "material": 0,
          "mode": 4
        }
      ]
    },
    {
      "name": "ReteCampoPiccolo1.020_Padelwqhite_0",
      "primitives": [
        {
          "attributes": {
            "NORMAL": 21,
            "POSITION": 20,
            "TEXCOORD_0": 22
          },
          "indices": 23,
          "material": 0,
          "mode": 4
        }
      ]
    },
    {
      "name": "ReteCampoPiccolo1.002_Padelwqhite_0",
      "primitives": [
        {
          "attributes": {
            "NORMAL": 25,
            "POSITION": 24,
            "TEXCOORD_0": 26
          },
          "indices": 27,
          "material": 0,
          "mode": 4
        }
      ]
    },
    {
      "name": "ReteCampoPiccolo1.002_Padelwqhite_0",
      "primitives": [
        {
          "attributes": {
            "NORMAL": 29,
            "POSITION": 28,
            "TEXCOORD_0": 30
          },
          "indices": 31,
          "material": 0,
          "mode": 4
        }
      ]
    },
    {
      "name": "ReteCampoPiccolo1.002_Padelwqhite_0",
      "primitives": [
        {
          "attributes": {
            "NORMAL": 33,
            "POSITION": 32,
            "TEXCOORD_0": 34
          },
          "indices": 35,
          "material": 0,
          "mode": 4
        }
      ]
    },
    {
      "name": "ReteCampoPiccolo1.002_Padelwqhite_0",
      "primitives": [
        {
          "attributes": {
            "NORMAL": 37,
            "POSITION": 36,
            "TEXCOORD_0": 38
          },
          "indices": 39,
          "material": 0,
          "mode": 4
        }
      ]
    },
    {
      "name": "ReteCampoPiccolo1.002_Padelwqhite_0",
      "primitives": [
        {
          "attributes": {
            "NORMAL": 41,
            "POSITION": 40,
            "TEXCOORD_0": 42
          },
          "indices": 43,
          "material": 0,
          "mode": 4
        }
      ]
    },
    {
      "name": "ReteCampoPiccolo1.002_Padelwqhite_0",
      "primitives": [
        {
          "attributes": {
            "NORMAL": 45,
            "POSITION": 44,
            "TEXCOORD_0": 46
          },
          "indices": 47,
          "material": 0,
          "mode": 4
        }
      ]
    },
    {
      "name": "ReteCampoPiccolo1.003_Padelwqhite_0",
      "primitives": [
        {
          "attributes": {
            "NORMAL": 49,
            "POSITION": 48,
            "TEXCOORD_0": 50
          },
          "indices": 51,
          "material": 0,
          "mode": 4
        }
      ]
    },
    {
      "name": "ReteCampoPiccolo1.003_Padelwqhite_0",
      "primitives": [
        {
          "attributes": {
            "NORMAL": 53,
            "POSITION": 52,
            "TEXCOORD_0": 54
          },
          "indices": 55,
          "material": 0,
          "mode": 4
        }
      ]
    },
    {
      "name": "ReteCampoPiccolo1.003_Padelwqhite_0",
      "primitives": [
        {
          "attributes": {
            "NORMAL": 57,
            "POSITION": 56,
            "TEXCOORD_0": 58
          },
          "indices": 59,
          "material": 0,
          "mode": 4
        }
      ]
    },
    {
      "name": "ReteCampoPiccolo1.004_Padelwqhite_0",
      "primitives": [
        {
          "attributes": {
            "NORMAL": 61,
            "POSITION": 60,
            "TEXCOORD_0": 62
          },
          "indices": 63,
          "material": 0,
          "mode": 4
        }
      ]
    },
    {
      "name": "ReteCampoPiccolo1.004_Padelwqhite_0",
      "primitives": [
        {
          "attributes": {
            "NORMAL": 65,
            "POSITION": 64,
            "TEXCOORD_0": 66
          },
          "indices": 67,
          "material": 0,
          "mode": 4
        }
      ]
    },
    {
      "name": "ReteCampoPiccolo1.004_Padelwqhite_0",
      "primitives": [
        {
          "attributes": {
            "NORMAL": 69,
            "POSITION": 68,
            "TEXCOORD_0": 70
          },
          "indices": 71,
          "material": 0,
          "mode": 4
        }
      ]
    },
    {
      "name": "BorderBalloon.001_Plane.004_BluePlastic_0",
      "primitives": [
        {
          "attributes": {
            "NORMAL": 73,
            "POSITION": 72,
            "TEXCOORD_0": 74
          },
          "indices": 75,
          "material": 1,
          "mode": 4
        }
      ]
    },
    {
      "name": "RetePadel.003_Padelwqhite_0",
      "primitives": [
        {
          "attributes": {
            "NORMAL": 77,
            "POSITION": 76,
            "TEXCOORD_0": 78
          },
          "indices": 79,
          "material": 0,
          "mode": 4
        }
      ]
    },
    {
      "name": "Retecampo_03 - Default_0",
      "primitives": [
        {
          "attributes": {
            "NORMAL": 81,
            "POSITION": 80,
            "TEXCOORD_0": 82
          },
          "indices": 83,
          "material": 2,
          "mode": 4
        }
      ]
    },
    {
      "name": "Retecampo_02 - Default_0",
      "primitives": [
        {
          "attributes": {
            "NORMAL": 85,
            "POSITION": 84,
            "TEXCOORD_0": 86
          },
          "indices": 87,
          "material": 3,
          "mode": 4
        }
      ]
    },
    {
      "name": "VetroPadel.001_Plastic_0",
      "primitives": [
        {
          "attributes": {
            "NORMAL": 89,
            "POSITION": 88,
            "TEXCOORD_0": 90
          },
          "indices": 91,
          "material": 4,
          "mode": 4
        }
      ]
    },
    {
      "name": "CampoPadel_Cemento_0",
      "primitives": [
        {
          "attributes": {
            "NORMAL": 93,
            "POSITION": 92,
            "TEXCOORD_0": 94
          },
          "indices": 95,
          "material": 5,
          "mode": 4
        }
      ]
    },
    {
      "name": "CampoPadel_PadelCOlor_0",
      "primitives": [
        {
          "attributes": {
            "NORMAL": 97,
            "POSITION": 96,
            "TEXCOORD_0": 98
          },
          "indices": 99,
          "material": 6,
          "mode": 4
        }
      ]
    },
    {
      "name": "CampoPadel_Material.002_0",
      "primitives": [
        {
          "attributes": {
            "NORMAL": 101,
            "POSITION": 100,
            "TEXCOORD_0": 102
          },
          "indices": 103,
          "material": 7,
          "mode": 4
        }
      ]
    },
    {
      "name": "Racchetta_Material #2_0",
      "primitives": [
        {
          "attributes": {
            "NORMAL": 105,
            "POSITION": 104,
            "TEXCOORD_0": 106
          },
          "indices": 107,
          "material": 8,
          "mode": 4
        }
      ]
    },
    {
      "name": "racchetta_Material #2_0",
      "primitives": [
        {
          "attributes": {
            "NORMAL": 109,
            "POSITION": 108,
            "TEXCOORD_0": 110
          },
          "indices": 111,
          "material": 8,
          "mode": 4
        }
      ]
    },
    {
      "name": "Luci.016_Padelwqhite_0",
      "primitives": [
        {
          "attributes": {
            "NORMAL": 113,
            "POSITION": 112,
            "TEXCOORD_0": 114
          },
          "indices": 115,
          "material": 0,
          "mode": 4
        }
      ]
    },
    {
      "name": "Luci.016_Emission_0",
      "primitives": [
        {
          "attributes": {
            "NORMAL": 117,
            "POSITION": 116,
            "TEXCOORD_0": 118
          },
          "indices": 119,
          "material": 9,
          "mode": 4
        }
      ]
    },
    {
      "name": "Luci.017_Padelwqhite_0",
      "primitives": [
        {
          "attributes": {
            "NORMAL": 121,
            "POSITION": 120,
            "TEXCOORD_0": 122
          },
          "indices": 123,
          "material": 0,
          "mode": 4
        }
      ]
    },
    {
      "name": "Luci.017_Emission_0",
      "primitives": [
        {
          "attributes": {
            "NORMAL": 125,
            "POSITION": 124,
            "TEXCOORD_0": 126
          },
          "indices": 127,
          "material": 9,
          "mode": 4
        }
      ]
    },
    {
      "name": "Luci.018_Padelwqhite_0",
      "primitives": [
        {
          "attributes": {
            "NORMAL": 129,
            "POSITION": 128,
            "TEXCOORD_0": 130
          },
          "indices": 131,
          "material": 0,
          "mode": 4
        }
      ]
    },
    {
      "name": "Luci.018_Emission_0",
      "primitives": [
        {
          "attributes": {
            "NORMAL": 133,
            "POSITION": 132,
            "TEXCOORD_0": 134
          },
          "indices": 135,
          "material": 9,
          "mode": 4
        }
      ]
    },
    {
      "name": "Luci.019_Padelwqhite_0",
      "primitives": [
        {
          "attributes": {
            "NORMAL": 137,
            "POSITION": 136,
            "TEXCOORD_0": 138
          },
          "indices": 139,
          "material": 0,
          "mode": 4
        }
      ]
    },
    {
      "name": "Luci.019_Emission_0",
      "primitives": [
        {
          "attributes": {
            "NORMAL": 141,
            "POSITION": 140,
            "TEXCOORD_0": 142
          },
          "indices": 143,
          "material": 9,
          "mode": 4
        }
      ]
    }
  ],
  "nodes": [
    {
      "children": [
        1
      ],
      "matrix": [
        1.0,
        0.0,
        0.0,
        0.0,
        0.0,
        2.220446049250313e-16,
        -1.0,
        0.0,
        0.0,
        1.0,
        2.220446049250313e-16,
        0.0,
        0.0,
        0.0,
        0.0,
        1.0
      ],
      "name": "Sketchfab_model"
    },
    {
      "children": [
        2
      ],
      "matrix": [
        0.009999999776482582,
        0.0,
        0.0,
        0.0,
        0.0,
        0.0,
        0.009999999776482582,
        0.0,
        0.0,
        -0.009999999776482582,
        0.0,
        0.0,
        0.0,
        0.0,
        0.0,
        1.0
      ],
      "name": "1edc4d4381024da4b0a7dda58f4de663.fbx"
    },
    {
      "children": [
        3,
        10,
        17,
        21,
        25,
        27,
        29,
        32,
        34,
        38,
        40,
        42,
        45,
        48,
        51
      ],
      "name": "RootNode"
    },
    {
      "children": [
        4,
        5,
        6,
        7,
        8,
        9
      ],
      "matrix": [
        4.0323850882864455e-08,
        0.0,
        -0.5341055989265426,
        0.0,
        0.0,
        0.24033908545970917,
        0.0,
        0.0,
        0.49083116650581216,
        0.0,
        3.7056722128773026e-08,
        0.0,
        12647.7236328125,
        -25.20700454711914,
        -207.2489471435547,
        1.0
      ],
      "name": "ReteCampoPiccolo1.020"
    },
    {
      "mesh": 0,
      "name": "ReteCampoPiccolo1.020_Padelwqhite_0"
    },
    {
      "mesh": 1,
      "name": "ReteCampoPiccolo1.020_Padelwqhite_0"
    },
    {
      "mesh": 2,
      "name": "ReteCampoPiccolo1.020_Padelwqhite_0"
    },
    {
      "mesh": 3,
      "name": "ReteCampoPiccolo1.020_Padelwqhite_0"
    },
    {
      "mesh": 4,
      "name": "ReteCampoPiccolo1.020_Padelwqhite_0"
    },
    {
      "mesh": 5,
      "name": "ReteCampoPiccolo1.020_Padelwqhite_0"
    },
    {
      "children": [
        11,
        12,
        13,
        14,
        15,
        16
      ],
      "matrix": [
        4.0323850882864455e-08,
        0.0,
        -0.5341055989265426,
        0.0,
        0.0,
        0.24033908545970917,
        0.0,
        0.0,
        0.49083116650581216,
        0.0,
        3.7056722128773026e-08,
        0.0,
        12647.7236328125,
        -25.20700454711914,
        -450.9559631347656,
        1.0
      ],
      "name": "ReteCampoPiccolo1.002"
    },
    {
      "mesh": 6,
      "name": "ReteCampoPiccolo1.002_Padelwqhite_0"
    },
    {
      "mesh": 7,
      "name": "ReteCampoPiccolo1.002_Padelwqhite_0"
    },
    {
      "mesh": 8,
      "name": "ReteCampoPiccolo1.002_Padelwqhite_0"
    },
    {
      "mesh": 9,
      "name": "ReteCampoPiccolo1.002_Padelwqhite_0"
    },
    {
      "mesh": 10,
      "name": "ReteCampoPiccolo1.002_Padelwqhite_0"
    },
    {
      "mesh": 11,
      "name": "ReteCampoPiccolo1.002_Padelwqhite_0"
    },
    {
      "children": [
        18,
        19,
        20
      ],
      "matrix": [
        4.0323850882864455e-08,
        0.0,
        -0.5341055989265426,
        0.0,
        0.0,
        0.24033908545970917,
        0.0,
        0.0,
        0.49083116650581216,
        0.0,
        3.7056722128773026e-08,
        0.0,
        12647.7236328125,
        -25.20700454711914,
        -207.2489471435547,
        1.0
      ],
      "name": "ReteCampoPiccolo1.003"
    },
    {
      "mesh": 12,
      "name": "ReteCampoPiccolo1.003_Padelwqhite_0"
    },
    {
      "mesh": 13,
      "name": "ReteCampoPiccolo1.003_Padelwqhite_0"
    },
    {
      "mesh": 14,
      "name": "ReteCampoPiccolo1.003_Padelwqhite_0"
    },
    {
      "children": [
        22,
        23,
        24
      ],
      "matrix": [
        4.0323850882864455e-08,
        0.0,
        -0.5341055989265426,
        0.0,
        0.0,
        0.24033908545970917,
        0.0,
        0.0,
        0.49083116650581216,
        0.0,
        3.7056722128773026e-08,
        0.0,
        13102.35546875,
        -25.20700454711914,
        -207.2489471435547,
        1.0
      ],
      "name": "ReteCampoPiccolo1.004"
    },
    {
      "mesh": 15,
      "name": "ReteCampoPiccolo1.004_Padelwqhite_0"
    },
    {
      "mesh": 16,
      "name": "ReteCampoPiccolo1.004_Padelwqhite_0"
    },
    {
      "mesh": 17,
      "name": "ReteCampoPiccolo1.004_Padelwqhite_0"
    },
    {
      "children": [
        26
      ],
      "matrix": [
        9.703638959824317e-09,
        -3.377092330670019e-22,
        -0.04983708634972478,
        0.0,
        -8.43773683493245e-06,
        0.10847089406812764,
        -1.642888016580416e-12,
        0.0,
        0.05591017363441124,
        4.349142095447852e-06,
        1.0886112705457564e-08,
        0.0,
        12423.7216796875,
        -79.13021850585938,
        -450.19854736328125,
        1.0
      ],
      "name": "BorderBalloon.001_Plane.004"
    },
    {
      "mesh": 18,
      "name": "BorderBalloon.001_Plane.004_BluePlastic_0"
    },
    {
      "children": [
        28
      ],
      "matrix": [
        -0.010597464835834524,
        1.2978151390281383e-18,
        0.008022010322120363,
        0.0,
        7.026189769509469e-17,
        0.35778793692588806,
        3.4935805086901223e-17,
        0.0,
        -0.008022010322120363,
        2.6101289006712957e-18,
        -0.010597464835834524,
        0.0,
        12859.6103515625,
        -62.99186325073242,
        -450.8299865722656,
        1.0
      ],
      "name": "RetePadel.003"
    },
    {
      "mesh": 19,
      "name": "RetePadel.003_Padelwqhite_0"
    },
    {
      "children": [
        30,
        31
      ],
      "matrix": [
        0.1333242952823639,
        0.0,
        0.0,
        0.0,
        0.0,
        0.1333242952823639,
        0.0,
        0.0,
        0.0,
        0.0,
        0.1333242952823639,
        0.0,
        12436.56640625,
        12.055811882019043,
        -193.16104125976563,
        1.0
      ],
      "name": "Retecampo"
    },
    {
      "mesh": 20,
      "name": "Retecampo_03 - Default_0"
    },
    {
      "mesh": 21,
      "name": "Retecampo_02 - Default_0"
    },
    {
      "children": [
        33
      ],
      "matrix": [
        0.31472575664520264,
        0.0,
        0.0,
        0.0,
        0.0,
        0.4091057777404785,
        0.0,
        0.0,
        0.0,
        0.0,
        0.01105071883648634,
        0.0,
        12565.28125,
        -68.3702392578125,
        -451.48553466796875,
        1.0
      ],
      "name": "VetroPadel.001"
    },
    {
      "mesh": 22,
      "name": "VetroPadel.001_Plastic_0"
    },
    {
      "children": [
        35,
        36,
        37
      ],
      "matrix": [
        2.4652459621429443,
        0.0,
        0.0,
        0.0,
        0.0,
        0.044127702713012695,
        0.0,
        0.0,
        0.0,
        0.0,
        1.3304647207260132,
        0.0,
        12438.126953125,
        -102.06036376953125,
        -328.6780700683594,
        1.0
      ],
      "name": "CampoPadel"
    },
    {
      "mesh": 23,
      "name": "CampoPadel_Cemento_0"
    },
    {
      "mesh": 24,
      "name": "CampoPadel_PadelCOlor_0"
    },
    {
      "mesh": 25,
      "name": "CampoPadel_Material.002_0"
    },
    {
      "children": [
        39
      ],
      "matrix": [
        0.00038229767319926654,
        5.1942371980898915e-05,
        -9.533785971122605e-20,
        0.0,
        -5.1942371980898874e-05,
        0.00038229767319926616,
        -1.6864301423606583e-11,
        0.0,
        -2.2704734515322976e-12,
        1.6710764665945978e-11,
        0.00038581024273298643,
        0.0,
        12527.505859375,
        -96.82254791259766,
        -334.76531982421875,
        1.0
      ],
      "name": "Racchetta"
    },
    {
      "mesh": 26,
      "name": "Racchetta_Material #2_0"
    },
    {
      "children": [
        41
      ],
      "matrix": [
        0.0003822976439995639,
        4.893655377380482e-05,
        -1.7413316185960675e-05,
        0.0,
        -5.19423785550198e-05,
        0.00036017477802155766,
        -0.00012816263880263587,
        0.0,
        -1.4868977272766579e-12,
        0.00012934018375213225,
        0.00036348402689463525,
        0.0,
        12527.505859375,
        -95.82958221435547,
        -340.23211669921875,
        1.0
      ],
      "name": "racchetta"
    },
    {
      "mesh": 27,
      "name": "racchetta_Material #2_0"
    },
    {
      "children": [
        43,
        44
      ],
      "matrix": [
        -0.004684158249263461,
        -2.804897297452088e-07,
        0.0036052341792911597,
        0.0,
        3.4798708172951955e-07,
        0.5673373324035419,
        4.459136733008722e-05,
        0.0,
        -0.0036052341902004844,
        3.7037505447927434e-07,
        -0.004684158234622139,
        0.0,
        12530.12109375,
        53.0064582824707,
        -207.61444091796875,
        1.0
      ],
      "name": "Luci.016"
    },
    {
      "mesh": 28,
      "name": "Luci.016_Padelwqhite_0"
    },
    {
      "mesh": 29,
      "name": "Luci.016_Emission_0"
    },
    {
      "children": [
        46,
        47
      ],
      "matrix": [
        -0.004684158249263461,
        -2.804897297452088e-07,
        0.0036052341792911597,
        0.0,
        3.4798708172951955e-07,
        0.5673373324035419,
        4.459136733008722e-05,
        0.0,
        -0.0036052341902004844,
        3.7037505447927434e-07,
        -0.004684158234622139,
        0.0,
        12345.8251953125,
        53.0064582824707,
        -207.61444091796875,
        1.0
      ],
      "name": "Luci.017"
    },
    {
      "mesh": 30,
      "name": "Luci.017_Padelwqhite_0"
    },
    {
      "mesh": 31,
      "name": "Luci.017_Emission_0"
    },
    {
      "children": [
        49,
        50
      ],
      "matrix": [
        0.004684158517989354,
        -2.804897458360755e-07,
        -0.0036052345936151502,
        0.0,
        -3.4799083993709707e-07,
        0.5673373324035417,
        -4.459136964650492e-05,
        0.0,
        0.0036052346045244757,
        3.703751188619969e-07,
        0.004684158503348029,
        0.0,
        12530.12109375,
        53.0064582824707,
        -451.3215026855469,
        1.0
      ],
      "name": "Luci.018"
    },
    {
      "mesh": 32,
      "name": "Luci.018_Padelwqhite_0"
    },
    {
      "mesh": 33,
      "name": "Luci.018_Emission_0"
    },
    {
      "children": [
        52,
        53
      ],
      "matrix": [
        0.004684158517989354,
        -2.804897458360755e-07,
        -0.0036052345936151502,
        0.0,
        -3.4799083993709707e-07,
        0.5673373324035417,
        -4.459136964650492e-05,
        0.0,
        0.0036052346045244757,
        3.703751188619969e-07,
        0.004684158503348029,
        0.0,
        12345.8251953125,
        53.0064582824707,
        -451.3215026855469,
        1.0
      ],
      "name": "Luci.019"
    },
    {
      "mesh": 34,
      "name": "Luci.019_Padelwqhite_0"
    },
    {
      "mesh": 35,
      "name": "Luci.019_Emission_0"
    }
  ],
  "samplers": [
    {
      "magFilter": 9729,
      "minFilter": 9987,
      "wrapS": 10497,
      "wrapT": 10497
    }
  ],
  "scene": 0,
  "scenes": [
    {
      "name": "Sketchfab_Scene",
      "nodes": [
        0
      ]
    }
  ],
  "textures": [
    {
      "sampler": 0,
      "source": 0
    },
    {
      "sampler": 0,
      "source": 1
    }
  ]
}
